<!DOCTYPE svg PUBLIC "-//W3C//DTD SVG 20010904//EN" "http://www.w3.org/TR/2001/REC-SVG-20010904/DTD/svg10.dtd">
<svg version="1.0" xmlns="http://www.w3.org/2000/svg" width="1600px" height="1600px" viewBox="0 0 16000 16000" preserveAspectRatio="xMidYMid meet">
<g id="layer101" fill="#000000" stroke="none">
 <path d="M0 8000 l0 -8000 8000 0 8000 0 0 8000 0 8000 -8000 0 -8000 0 0 -8000z"/>
 </g>
<g id="layer102" fill="#263238" stroke="none">
 <path d="M0 8000 l0 -8000 8000 0 8000 0 0 8000 0 8000 -8000 0 -8000 0 0 -8000z m10377 -1498 c13 -29 98 -127 110 -127 5 0 34 -13 66 -28 46 -23 77 -29 148 -33 86 -4 91 -3 113 21 13 14 25 25 28 25 3 0 5 -19 5 -42 0 -24 8 -67 17 -96 14 -41 19 -93 21 -225 2 -168 3 -175 38 -272 34 -97 46 -160 52 -274 6 -114 23 -249 34 -269 6 -11 11 -38 11 -59 1 -21 10 -63 21 -93 33 -90 40 -140 29 -195 -18 -91 18 -452 52 -520 8 -17 18 -50 22 -73 4 -24 16 -62 27 -84 11 -21 29 -68 39 -102 13 -40 34 -79 59 -107 56 -64 170 -331 217 -509 22 -80 29 -105 59 -205 45 -151 53 -194 60 -345 5 -112 3 -174 -10 -270 -9 -69 -20 -134 -25 -145 -5 -11 -13 -40 -20 -65 -60 -241 -95 -340 -119 -340 -4 0 -15 6 -25 13 -16 11 -16 21 -6 102 6 50 8 117 4 150 l-7 60 -24 -90 c-14 -49 -29 -98 -34 -107 -5 -10 -9 -23 -9 -30 -1 -7 -9 -31 -20 -53 -11 -22 -19 -44 -20 -48 0 -5 -6 -23 -14 -40 -8 -18 -27 -68 -42 -112 -48 -142 -135 -294 -222 -387 -49 -53 -186 -148 -212 -148 -8 0 -21 9 -28 20 -11 18 -10 25 6 48 23 35 55 101 87 182 l25 65 -28 -34 c-68 -86 -269 -255 -358 -302 -21 -12 -46 -27 -54 -33 -22 -18 -68 -36 -90 -36 -30 0 -24 26 13 52 35 25 84 75 150 156 39 46 62 88 138 242 19 41 69 193 69 212 0 7 -14 -14 -31 -47 -17 -33 -44 -78 -60 -100 -16 -22 -53 -76 -83 -120 -46 -68 -178 -203 -260 -267 -11 -9 -57 -45 -101 -80 -129 -102 -179 -138 -189 -138 -5 0 -17 -6 -25 -14 -9 -7 -54 -34 -101 -58 -104 -55 -182 -98 -195 -108 -5 -4 -30 -14 -55 -23 -122 -42 -244 -88 -295 -112 -86 -39 -111 -42 -120 -14 -9 27 1 36 107 89 79 39 162 100 178 131 9 16 7 16 -28 4 -20 -7 -68 -22 -107 -34 -38 -11 -122 -37 -185 -56 -63 -19 -140 -39 -170 -45 -30 -6 -69 -16 -86 -21 -34 -10 -167 -12 -201 -3 -33 9 -29 40 7 53 30 10 60 33 60 47 0 3 -6 2 -12 -3 -22 -16 -211 -64 -373 -95 -104 -19 -503 -16 -620 6 -191 35 -302 80 -470 191 -102 68 -151 119 -159 168 -6 32 -5 37 13 37 11 0 23 -5 26 -10 19 -31 177 -90 315 -119 121 -25 407 -40 395 -21 -3 5 -18 10 -32 10 -14 0 -44 5 -67 11 -22 6 -57 14 -76 19 -53 13 -142 40 -165 49 -11 5 -38 14 -60 21 -38 12 -61 21 -142 56 -52 23 -142 67 -178 88 -16 10 -57 32 -90 50 -34 18 -66 44 -73 59 -8 16 -24 28 -45 32 -62 12 -243 78 -312 113 -38 19 -80 40 -92 46 -13 6 -23 14 -23 19 0 4 -5 7 -11 7 -6 0 -41 20 -79 44 -73 48 -198 171 -254 251 -71 102 -130 200 -152 253 -12 30 -28 60 -35 67 -8 7 -50 25 -94 40 -94 31 -213 108 -300 192 -74 72 -108 116 -147 190 -16 32 -42 67 -56 78 -48 38 -127 109 -143 129 -49 62 -74 131 -77 211 -3 58 -9 85 -21 100 -44 50 -73 136 -92 270 -9 68 -38 163 -65 216 -21 42 -29 274 -11 331 12 38 13 63 4 134 -10 79 -9 88 8 100 15 11 18 26 16 89 -1 51 5 99 19 149 25 89 25 99 14 351 -4 110 -6 232 -4 270 7 140 2 503 -8 610 -9 90 -8 119 4 159 8 27 14 80 14 117 0 37 4 70 9 73 4 3 19 -6 32 -20 55 -59 118 -68 245 -34 123 33 170 65 231 157 l37 56 16 -69 c9 -38 20 -132 24 -208 4 -77 11 -147 15 -155 5 -9 12 -65 16 -126 3 -60 10 -128 15 -150 5 -22 14 -67 20 -100 7 -32 16 -66 20 -75 12 -25 80 -237 80 -249 0 -6 9 -30 20 -54 32 -68 70 -180 70 -205 0 -13 5 -32 11 -44 23 -43 51 -277 74 -613 6 -88 37 -225 65 -290 19 -41 77 -135 124 -200 27 -37 57 -82 66 -100 39 -77 262 -295 301 -295 9 0 22 -6 28 -14 19 -23 249 -128 321 -147 79 -21 256 -41 435 -49 105 -5 282 -15 395 -21 234 -15 288 -15 678 -6 156 4 292 12 302 17 10 6 35 10 54 10 34 0 185 32 334 71 40 10 83 19 97 19 13 0 27 5 30 10 3 6 16 10 28 10 30 0 70 28 147 102 77 74 103 96 133 109 12 5 36 18 52 28 17 11 36 20 44 20 33 2 269 192 288 233 6 13 31 66 56 120 66 139 85 270 91 623 2 88 11 129 67 310 16 51 24 109 29 215 12 249 68 555 130 715 4 11 13 52 19 90 7 39 17 89 23 113 10 41 8 163 -8 425 -6 88 -4 107 7 107 8 0 20 -12 26 -28z"/>
 <path d="M5610 2810 c0 -5 5 -10 11 -10 5 0 7 5 4 10 -3 6 -8 10 -11 10 -2 0 -4 -4 -4 -10z"/>
 <path d="M8228 1083 c6 -2 18 -2 25 0 6 3 1 5 -13 5 -14 0 -19 -2 -12 -5z"/>
 </g>
<g id="layer103" fill="#a68068" stroke="none">
 <path d="M709 15996 c-8 -8 13 -241 27 -311 30 -137 45 -221 64 -340 20 -129 36 -212 51 -261 5 -17 9 -40 9 -51 0 -11 12 -65 26 -119 14 -55 32 -128 39 -164 7 -36 25 -101 40 -145 17 -50 29 -110 32 -160 6 -103 116 -443 205 -635 17 -36 45 -103 63 -150 36 -92 77 -186 131 -294 19 -38 34 -76 34 -85 0 -17 48 -121 60 -131 3 -3 17 -23 30 -45 43 -74 81 -104 210 -166 122 -60 284 -161 346 -216 17 -15 68 -55 114 -88 46 -33 97 -72 114 -86 17 -14 47 -34 66 -45 46 -26 39 -20 166 -124 11 -9 42 -36 70 -60 77 -68 93 -80 120 -92 13 -6 24 -14 24 -18 0 -3 39 -27 88 -53 48 -25 103 -55 122 -67 38 -21 245 -124 375 -184 44 -21 105 -53 135 -71 31 -19 80 -47 110 -63 30 -16 91 -48 135 -72 44 -24 105 -56 135 -72 30 -16 59 -33 65 -37 14 -11 92 -55 205 -114 52 -27 107 -58 122 -68 14 -11 31 -19 37 -19 6 0 11 -4 11 -10 0 -5 5 -10 10 -10 6 0 29 -12 53 -27 23 -15 51 -32 62 -39 11 -6 63 -35 115 -64 52 -29 106 -59 120 -66 14 -8 48 -29 75 -48 46 -32 382 -206 398 -206 3 0 54 -22 112 -50 58 -27 108 -50 110 -50 9 0 65 -63 65 -74 1 -6 14 -27 30 -46 17 -19 30 -38 30 -43 0 -11 46 -105 68 -139 9 -15 33 -45 52 -68 85 -99 108 -128 136 -172 16 -27 32 -48 37 -48 4 0 7 -8 7 -17 0 -23 44 -143 80 -218 27 -56 87 -138 155 -210 30 -32 30 -34 32 -151 1 -65 5 -198 9 -296 8 -202 1 -239 -77 -390 -5 -10 -9 -23 -9 -29 0 -6 -22 -61 -49 -123 -27 -61 -56 -132 -65 -158 -8 -26 -25 -64 -36 -85 -11 -21 -20 -43 -20 -50 0 -8 -4 -21 -9 -31 -5 -9 -14 -59 -21 -111 -7 -51 -18 -108 -26 -126 -7 -18 -11 -35 -8 -37 6 -7 -16 -111 -27 -122 -5 -6 -9 -22 -9 -37 0 -15 -13 -56 -30 -91 -16 -34 -30 -67 -30 -73 0 -5 -19 -28 -43 -51 -23 -22 -62 -69 -87 -103 -25 -35 -62 -82 -82 -105 -21 -22 -38 -45 -38 -51 0 -5 -9 -21 -20 -35 -11 -14 -20 -32 -20 -40 0 -8 -7 -28 -15 -43 -13 -25 -35 -96 -90 -297 -25 -87 -45 -162 -54 -200 -5 -19 -19 -69 -32 -110 -12 -41 -26 -100 -31 -130 -22 -154 -31 -207 -41 -227 -6 -14 -8 -66 -4 -145 7 -120 7 -123 40 -156 65 -68 121 -77 253 -42 123 33 170 65 231 157 l37 56 16 -69 c9 -38 20 -132 24 -208 4 -77 11 -147 15 -155 5 -9 12 -65 16 -126 3 -60 10 -128 15 -150 5 -22 14 -67 20 -100 7 -32 16 -66 20 -75 12 -25 80 -237 80 -249 0 -6 9 -30 20 -54 32 -68 70 -180 70 -205 0 -13 5 -32 11 -44 23 -43 51 -277 74 -613 6 -88 37 -225 65 -290 19 -41 77 -135 124 -200 27 -37 57 -82 66 -100 39 -77 262 -295 301 -295 9 0 22 -6 28 -14 19 -23 249 -128 321 -147 79 -21 256 -41 435 -49 105 -5 282 -15 395 -21 234 -15 288 -15 678 -6 156 4 292 12 302 17 10 6 35 10 54 10 34 0 185 32 334 71 40 10 83 19 97 19 13 0 27 5 30 10 3 6 16 10 28 10 30 0 70 28 147 102 77 74 103 96 133 109 12 5 36 18 52 28 17 11 36 20 44 20 33 2 269 192 288 233 6 13 31 66 56 120 66 139 85 270 91 623 2 88 11 129 67 310 16 51 24 109 29 215 12 246 64 537 128 710 3 8 14 60 25 115 23 113 27 277 13 493 -8 111 -7 132 5 132 8 0 20 -12 26 -28 51 -115 246 -210 382 -187 49 8 108 64 117 111 3 19 10 37 15 40 11 6 10 145 -1 269 -13 139 -38 242 -85 350 -8 17 -25 74 -40 128 -14 54 -39 120 -55 146 -17 27 -30 55 -30 63 0 8 -13 35 -30 59 -16 24 -30 52 -30 63 0 16 -10 38 -61 138 -5 10 -9 24 -9 31 0 45 -122 207 -156 207 -3 0 -35 20 -71 45 -35 25 -67 45 -72 45 -26 0 -115 157 -128 224 -3 17 -11 42 -18 56 -7 14 -19 44 -26 68 -7 24 -23 57 -36 74 -13 18 -23 38 -23 45 0 7 -12 37 -27 65 -40 80 -41 82 -62 155 -17 64 -83 186 -148 278 -82 114 -75 76 -81 474 l-4 356 26 38 c14 21 36 57 49 79 35 64 43 77 59 95 9 10 26 41 38 68 12 28 33 65 47 83 14 19 42 73 64 122 42 99 50 113 96 187 18 28 33 54 33 57 0 4 16 31 36 61 26 39 44 56 66 60 16 4 41 13 56 21 15 8 32 14 38 14 5 0 29 9 52 20 22 11 45 20 50 20 5 0 29 15 53 32 24 18 51 37 60 43 43 26 76 51 99 71 56 51 200 134 231 134 5 0 32 11 61 24 29 13 80 33 113 45 69 25 62 22 220 96 131 62 314 135 403 160 32 9 75 24 97 34 22 10 65 27 95 37 30 10 57 22 58 27 2 4 9 7 15 7 26 0 211 77 372 155 221 107 227 110 316 139 42 14 97 34 121 45 24 10 63 22 86 26 23 4 44 11 48 16 3 5 12 9 20 9 8 0 34 9 56 20 23 11 47 20 54 20 12 0 225 107 349 175 39 21 84 53 100 71 21 22 80 55 188 103 87 39 160 71 163 71 8 0 99 76 200 167 51 46 95 83 100 83 27 0 194 189 194 220 0 5 5 10 10 10 6 0 10 6 10 13 0 6 18 36 40 65 22 29 40 56 40 61 0 5 7 14 15 21 8 7 27 36 41 64 14 28 33 60 43 71 10 11 24 35 31 53 7 18 29 56 50 85 20 29 43 67 51 85 7 18 17 32 21 32 5 0 8 8 8 17 0 9 6 24 14 32 21 24 51 82 66 126 7 22 16 42 20 45 3 3 19 43 34 90 16 47 39 110 51 140 32 77 42 114 54 195 6 39 20 95 31 125 12 30 25 75 30 100 5 25 13 62 19 83 6 20 15 52 20 70 18 63 59 204 100 342 23 77 47 158 52 180 6 22 22 74 34 115 55 177 65 211 65 225 0 16 27 103 39 125 9 17 54 196 70 280 36 186 40 202 89 358 l11 32 -7363 0 c-4049 0 -7365 -2 -7367 -4z"/>
 </g>
<g id="layer104" fill="#889ba6" stroke="none">
 <path d="M709 15996 c-8 -8 13 -241 27 -311 30 -137 45 -221 64 -340 20 -129 36 -212 51 -261 5 -17 9 -40 9 -51 0 -11 12 -65 26 -119 14 -55 32 -128 39 -164 7 -36 25 -101 40 -145 17 -50 29 -110 32 -160 6 -103 116 -443 205 -635 17 -36 45 -103 63 -150 36 -92 77 -186 131 -294 19 -38 34 -76 34 -85 0 -17 48 -121 60 -131 3 -3 17 -23 30 -45 43 -74 81 -104 210 -166 122 -60 284 -161 346 -216 17 -15 68 -55 114 -88 46 -33 97 -72 114 -86 17 -14 47 -34 66 -45 46 -26 39 -20 166 -124 11 -9 42 -36 70 -60 77 -68 93 -80 120 -92 13 -6 24 -14 24 -18 0 -3 39 -27 88 -53 48 -25 103 -55 122 -67 38 -21 245 -124 375 -184 44 -21 105 -53 135 -71 31 -19 80 -47 110 -63 30 -16 91 -48 135 -72 44 -24 105 -56 135 -72 30 -16 59 -33 65 -37 14 -11 92 -55 205 -114 52 -27 107 -58 122 -68 14 -11 31 -19 37 -19 6 0 11 -4 11 -10 0 -5 5 -10 10 -10 6 0 29 -12 53 -27 23 -15 51 -32 62 -39 11 -6 63 -35 115 -64 52 -29 106 -59 120 -66 14 -8 48 -29 75 -48 46 -32 382 -206 398 -206 3 0 54 -22 112 -50 58 -27 108 -50 110 -50 9 0 65 -63 65 -74 1 -6 14 -27 30 -46 17 -19 30 -38 30 -43 0 -11 46 -105 68 -139 9 -15 33 -45 52 -68 85 -99 108 -128 136 -172 16 -27 32 -48 37 -48 4 0 7 -8 7 -17 0 -23 44 -143 80 -218 27 -57 87 -138 156 -211 31 -33 31 -36 33 -131 0 -54 4 -186 7 -294 7 -213 3 -241 -55 -369 -13 -30 -25 -59 -26 -65 -1 -13 -17 -50 -65 -155 -21 -47 -44 -105 -50 -130 -7 -25 -20 -56 -29 -70 -24 -34 -48 -113 -55 -185 -9 -80 -56 -297 -67 -309 -5 -6 -9 -21 -9 -35 0 -31 -21 -93 -37 -112 -6 -8 -14 -26 -18 -40 -4 -15 -27 -46 -52 -70 -25 -24 -60 -66 -77 -94 -18 -27 -52 -70 -75 -95 -40 -42 -101 -153 -101 -182 0 -7 -9 -29 -19 -49 -11 -20 -24 -60 -29 -90 -6 -30 -18 -74 -27 -99 -9 -25 -25 -79 -36 -120 -11 -41 -25 -91 -30 -110 -6 -19 -14 -53 -19 -75 -5 -22 -16 -60 -25 -85 -10 -25 -21 -72 -26 -105 -25 -174 -32 -212 -42 -232 -14 -30 -3 -234 15 -264 38 -69 85 -99 152 -99 48 0 165 26 181 41 5 5 16 9 26 9 26 0 88 55 137 121 l46 62 18 -74 c10 -41 18 -103 18 -139 0 -36 5 -96 11 -135 5 -38 16 -135 24 -215 18 -174 27 -226 54 -304 12 -33 21 -66 21 -74 0 -7 6 -28 14 -45 8 -18 27 -72 42 -122 15 -49 35 -103 44 -120 19 -35 42 -111 65 -215 9 -41 20 -94 26 -118 5 -23 9 -68 9 -100 0 -32 6 -66 14 -77 9 -14 15 -77 20 -215 5 -169 9 -206 32 -280 14 -47 29 -92 34 -100 5 -8 22 -42 39 -75 16 -33 40 -71 53 -85 28 -30 108 -153 108 -166 1 -13 166 -183 220 -226 25 -20 55 -39 67 -42 13 -4 29 -13 35 -20 41 -39 313 -152 388 -161 19 -2 67 -9 105 -14 39 -6 117 -11 175 -11 58 -1 141 -5 185 -10 119 -13 486 -34 595 -34 253 1 658 15 680 24 14 5 68 16 120 24 52 8 133 25 180 36 47 12 112 27 145 34 33 7 67 15 75 18 8 4 27 9 42 12 15 3 55 34 90 69 97 95 259 209 276 193 3 -3 24 9 46 28 23 18 55 40 71 49 55 29 170 151 183 194 7 22 26 67 43 99 50 93 49 85 75 439 3 39 5 110 4 158 -1 61 3 99 13 120 9 18 18 53 22 80 4 26 11 50 16 52 4 3 11 27 15 53 3 26 12 53 18 61 6 8 14 78 17 165 4 83 9 166 12 184 4 18 11 58 17 89 5 31 10 75 10 97 0 22 6 58 14 81 8 22 19 65 26 95 7 30 21 82 32 115 60 183 73 342 54 653 -8 119 -7 132 8 132 9 0 16 -5 16 -11 0 -16 70 -109 81 -109 6 0 20 -9 31 -20 60 -56 215 -94 287 -70 52 17 99 63 107 106 3 19 10 37 15 40 12 7 11 191 -1 199 -5 3 -10 41 -10 83 0 42 -5 95 -10 117 -6 22 -12 55 -15 73 -3 18 -16 58 -29 90 -26 63 -60 162 -62 177 -2 35 -21 89 -52 150 -19 39 -42 85 -51 103 -8 17 -19 32 -23 32 -4 0 -10 17 -14 38 -4 20 -22 67 -40 103 -19 37 -34 72 -34 78 0 20 -60 131 -70 131 -6 0 -15 11 -20 25 -5 14 -14 25 -19 25 -5 0 -16 6 -23 13 -7 7 -34 23 -59 35 -25 12 -56 33 -69 47 -13 14 -29 25 -35 25 -31 0 -118 148 -132 225 -3 16 -13 44 -23 60 -10 17 -20 46 -24 66 -4 21 -15 48 -25 60 -21 28 -81 155 -81 173 0 6 -4 16 -9 22 -5 5 -18 41 -29 79 -22 80 -142 289 -205 356 -9 11 -17 22 -17 26 0 3 -6 13 -14 22 -97 106 -136 152 -136 160 0 24 -235 180 -371 246 -41 19 -99 56 -129 80 -91 74 -366 207 -565 274 -163 55 -277 72 -521 78 -179 5 -236 2 -300 -11 -43 -8 -128 -22 -189 -30 -60 -8 -153 -29 -205 -46 -52 -17 -122 -37 -155 -46 -104 -26 -219 -66 -247 -86 -14 -10 -73 -41 -130 -68 -57 -27 -164 -88 -238 -134 -74 -47 -156 -95 -182 -107 -43 -19 -88 -61 -178 -165 -45 -51 -67 -67 -49 -33 54 101 147 229 234 318 55 57 107 111 115 120 49 52 281 241 295 241 4 0 25 15 48 34 43 34 162 106 176 106 4 0 17 9 29 20 26 25 110 70 128 70 8 0 14 3 14 8 0 4 17 15 38 24 20 10 48 24 62 31 62 34 198 97 208 97 7 0 12 5 12 10 0 6 7 10 15 10 8 0 29 8 47 18 18 10 107 49 198 86 91 37 188 78 215 91 28 12 61 26 75 30 14 3 59 19 100 35 41 16 120 45 175 65 55 19 109 39 120 44 38 17 335 113 445 144 19 5 46 13 60 18 14 4 41 11 60 15 19 3 41 10 50 14 15 8 90 24 285 60 61 12 130 25 155 30 25 5 75 12 111 16 l66 6 13 -94 c7 -51 19 -133 27 -183 23 -143 32 -357 24 -623 -4 -136 -5 -249 -3 -252 5 -7 39 38 70 94 41 74 47 84 64 103 9 10 26 41 38 68 12 28 33 65 47 83 14 19 42 73 64 122 42 99 50 113 96 187 18 28 33 54 33 57 0 4 16 31 36 61 26 39 44 56 66 60 16 4 41 13 56 21 15 8 32 14 38 14 5 0 29 9 52 20 22 11 45 20 50 20 5 0 29 15 53 32 24 18 51 37 60 43 43 26 76 51 99 71 56 51 200 134 231 134 5 0 32 11 61 24 29 13 80 33 113 45 69 25 62 22 220 96 131 62 314 135 403 160 32 9 75 24 97 34 22 10 65 27 95 37 30 10 57 22 58 27 2 4 9 7 15 7 26 0 211 77 372 155 221 107 227 110 316 139 42 14 97 34 121 45 24 10 63 22 86 26 23 4 44 11 48 16 3 5 12 9 20 9 8 0 34 9 56 20 23 11 47 20 54 20 12 0 225 107 349 175 39 21 84 53 100 71 21 22 80 55 188 103 87 39 160 71 163 71 8 0 99 76 200 167 51 46 95 83 100 83 27 0 194 189 194 220 0 5 5 10 10 10 6 0 10 6 10 13 0 6 18 36 40 65 22 29 40 56 40 61 0 5 7 14 15 21 8 7 27 36 41 64 14 28 33 60 43 71 10 11 24 35 31 53 7 18 29 56 50 85 20 29 43 67 51 85 7 18 17 32 21 32 5 0 8 8 8 17 0 9 6 24 14 32 21 24 51 82 66 126 7 22 16 42 20 45 3 3 19 43 34 90 16 47 39 110 51 140 32 77 42 114 54 195 6 39 20 95 31 125 12 30 25 75 30 100 5 25 13 62 19 83 6 20 15 52 20 70 18 63 59 204 100 342 23 77 47 158 52 180 6 22 22 74 34 115 55 177 65 211 65 225 0 16 27 103 39 125 9 17 54 196 70 280 36 186 40 202 89 358 l11 32 -7363 0 c-4049 0 -7365 -2 -7367 -4z m9468 -8293 c-4 -3 -7 0 -7 7 0 7 3 10 7 7 3 -4 3 -10 0 -14z"/>
 </g>
<g id="layer105" fill="#bf9378" stroke="none">
 <path d="M709 15995 c-3 -2 -2 -39 2 -82 4 -43 10 -111 13 -151 4 -39 11 -82 16 -95 9 -20 19 -72 55 -282 26 -153 34 -200 45 -255 6 -30 15 -75 19 -100 4 -25 13 -58 20 -74 6 -16 9 -31 7 -34 -3 -2 1 -19 8 -37 8 -17 19 -65 26 -106 6 -41 21 -99 32 -129 32 -90 50 -171 52 -240 1 -36 8 -81 15 -100 8 -19 17 -44 21 -55 4 -11 14 -38 23 -60 8 -22 24 -71 35 -110 28 -96 77 -225 101 -265 12 -21 25 -51 67 -160 20 -52 50 -119 65 -149 16 -31 29 -59 29 -64 0 -4 16 -39 35 -78 19 -39 35 -78 35 -87 0 -14 46 -116 62 -137 5 -5 27 -37 51 -70 30 -42 59 -69 93 -86 27 -15 63 -33 79 -42 17 -9 53 -27 80 -40 60 -29 118 -60 125 -67 3 -3 12 -9 21 -15 60 -38 105 -70 128 -94 14 -15 48 -42 76 -61 27 -19 59 -42 70 -52 37 -32 130 -97 169 -119 21 -11 57 -37 78 -57 22 -21 47 -41 57 -47 9 -5 40 -32 69 -59 28 -27 76 -65 105 -84 28 -19 54 -38 57 -42 3 -5 50 -32 105 -60 137 -72 158 -83 172 -97 7 -6 30 -17 50 -24 21 -7 52 -20 68 -31 17 -10 37 -20 45 -24 26 -10 325 -158 330 -164 9 -9 64 -39 160 -87 52 -26 101 -53 108 -60 7 -7 30 -20 50 -30 20 -9 53 -27 72 -39 50 -32 131 -77 230 -126 47 -24 87 -46 88 -50 2 -5 8 -8 13 -8 6 0 41 -20 79 -45 38 -25 73 -45 78 -45 4 0 24 -12 43 -26 19 -14 54 -36 79 -48 25 -12 63 -33 85 -47 22 -13 54 -31 70 -39 17 -8 46 -26 65 -40 19 -14 44 -31 55 -37 37 -23 320 -160 355 -173 52 -18 204 -93 208 -102 2 -4 12 -8 23 -8 12 0 19 -7 19 -20 0 -11 6 -19 12 -18 7 2 14 -8 16 -22 2 -14 13 -37 23 -51 10 -15 19 -30 19 -34 0 -8 46 -104 62 -129 7 -11 24 -32 38 -46 52 -56 108 -127 145 -185 20 -33 42 -61 46 -63 5 -2 9 -12 9 -22 0 -22 51 -155 87 -229 15 -30 51 -80 80 -112 29 -31 53 -61 53 -67 0 -6 11 -19 24 -29 22 -17 24 -26 25 -118 0 -55 4 -188 7 -296 7 -213 3 -241 -55 -369 -13 -30 -25 -59 -26 -65 -1 -13 -17 -50 -65 -155 -21 -47 -44 -105 -50 -130 -7 -25 -20 -56 -29 -70 -24 -34 -48 -113 -55 -185 -9 -80 -56 -297 -67 -309 -5 -6 -9 -21 -9 -35 0 -31 -21 -93 -37 -112 -6 -8 -14 -26 -18 -40 -4 -15 -27 -46 -52 -70 -25 -24 -60 -66 -77 -94 -18 -27 -52 -70 -75 -95 -40 -42 -101 -153 -101 -182 0 -7 -9 -29 -19 -49 -11 -20 -24 -60 -29 -90 -6 -30 -18 -74 -27 -99 -9 -25 -25 -79 -36 -120 -11 -41 -25 -91 -30 -110 -6 -19 -14 -53 -19 -75 -5 -22 -16 -60 -25 -85 -10 -25 -21 -72 -26 -105 -25 -174 -32 -212 -42 -232 -14 -30 -3 -234 15 -264 38 -69 85 -99 152 -99 48 0 165 26 181 41 5 5 16 9 26 9 26 0 88 55 137 121 l46 62 18 -74 c10 -41 18 -103 18 -139 0 -36 5 -96 11 -135 5 -38 16 -135 24 -215 18 -174 27 -226 54 -304 12 -33 21 -66 21 -74 0 -7 6 -28 14 -45 8 -18 27 -72 42 -122 15 -49 35 -103 44 -120 19 -35 42 -111 65 -215 9 -41 20 -94 26 -118 5 -23 9 -68 9 -100 0 -32 6 -66 14 -77 9 -14 15 -77 20 -215 5 -169 9 -206 32 -280 14 -47 29 -92 34 -100 5 -8 22 -42 39 -75 16 -33 40 -71 53 -85 28 -30 108 -153 108 -166 1 -13 166 -183 220 -226 25 -20 55 -39 67 -42 13 -4 29 -13 35 -20 41 -39 313 -152 388 -161 19 -2 67 -9 105 -14 39 -6 117 -11 175 -11 58 -1 141 -5 185 -10 119 -13 486 -34 595 -34 253 1 658 15 680 24 14 5 68 16 120 24 52 8 133 25 180 36 47 12 112 27 145 34 33 7 67 15 75 18 8 4 27 9 42 12 15 3 55 34 90 69 97 95 259 209 276 193 3 -3 24 9 46 28 23 18 55 40 71 49 55 29 170 151 183 194 7 22 26 67 43 99 50 93 49 85 75 439 3 39 5 110 4 158 -1 61 3 99 13 120 9 18 18 53 22 80 4 26 11 50 16 52 4 3 11 27 15 53 3 26 12 53 18 61 6 8 14 78 17 165 4 83 9 166 12 184 4 18 11 58 17 89 5 31 10 75 10 97 0 22 6 58 14 81 8 22 19 65 26 95 7 30 21 82 32 115 60 183 73 342 54 653 -8 119 -7 132 8 132 9 0 16 -5 16 -11 0 -16 70 -109 81 -109 6 0 20 -9 31 -20 60 -56 215 -94 287 -70 52 17 99 63 107 106 3 19 10 37 15 40 12 7 11 191 -1 199 -5 3 -10 41 -10 83 0 42 -5 95 -10 117 -6 22 -12 55 -15 73 -3 18 -16 58 -29 90 -26 63 -60 162 -62 177 -2 35 -21 89 -52 150 -19 39 -42 85 -51 103 -8 17 -19 32 -23 32 -4 0 -10 17 -14 38 -4 20 -22 67 -40 103 -19 37 -34 72 -34 78 0 20 -60 131 -70 131 -6 0 -15 11 -20 25 -5 14 -14 25 -19 25 -5 0 -16 6 -23 13 -7 7 -34 23 -59 35 -25 12 -56 33 -69 47 -13 14 -29 25 -35 25 -31 0 -118 148 -132 225 -3 16 -13 44 -23 60 -10 17 -20 46 -24 66 -4 21 -15 48 -25 60 -21 28 -81 155 -81 173 0 6 -4 16 -9 22 -5 5 -18 41 -29 79 -22 80 -142 289 -205 356 -9 11 -17 22 -17 26 0 3 -6 13 -14 22 -97 106 -136 152 -136 160 0 24 -235 180 -371 246 -41 19 -99 56 -129 80 -91 74 -366 207 -565 274 -163 55 -277 72 -521 78 -179 5 -236 2 -300 -11 -43 -8 -128 -22 -189 -30 -60 -8 -153 -29 -205 -46 -52 -17 -122 -37 -155 -46 -104 -26 -219 -66 -247 -86 -14 -10 -73 -41 -130 -68 -57 -27 -164 -88 -238 -134 -74 -47 -156 -95 -182 -107 -43 -19 -88 -61 -178 -165 -45 -51 -67 -67 -49 -33 54 101 147 229 234 318 55 57 107 111 115 120 49 52 281 241 295 241 4 0 25 15 48 34 43 34 162 106 176 106 4 0 17 9 29 20 26 25 110 70 128 70 8 0 14 3 14 8 0 4 17 15 38 24 20 10 48 24 62 31 62 34 198 97 208 97 7 0 12 5 12 10 0 6 7 10 15 10 8 0 29 8 47 18 18 10 107 49 198 86 91 37 188 78 215 91 28 12 61 26 75 30 14 3 59 19 100 35 41 16 120 45 175 65 55 19 109 39 120 44 38 17 335 113 445 144 19 5 46 13 60 18 14 4 41 11 60 15 19 3 41 10 50 14 15 8 90 24 285 60 61 12 130 25 155 30 25 5 75 12 111 16 l66 6 13 -94 c7 -51 19 -133 27 -183 23 -143 32 -357 24 -623 -4 -136 -5 -249 -3 -252 4 -5 51 52 52 64 0 4 13 28 30 53 16 24 30 48 30 52 0 4 9 16 20 26 11 10 20 26 20 35 0 10 7 23 15 30 8 7 15 18 15 24 0 6 18 37 40 70 22 32 40 63 40 69 0 21 68 159 115 232 17 28 42 71 54 97 12 25 29 52 37 59 11 9 12 14 3 19 -8 6 -8 9 0 14 6 4 11 2 11 -4 0 -14 48 -5 88 16 15 8 32 14 38 14 5 0 29 9 52 20 22 11 45 20 50 20 5 0 29 15 53 32 24 18 51 37 60 43 58 37 83 56 117 86 58 52 131 92 232 126 25 8 52 21 60 28 8 7 35 18 60 25 25 7 69 23 98 36 29 13 55 24 59 24 3 0 52 22 107 49 132 64 229 103 351 141 55 18 111 37 125 44 14 7 57 24 95 37 39 13 76 29 83 36 7 7 20 13 29 13 8 0 29 6 46 14 18 8 57 22 87 32 30 11 81 34 113 51 33 18 62 33 65 33 4 0 65 29 137 64 71 35 155 71 185 80 30 10 89 30 130 46 41 16 91 32 110 36 19 3 44 13 55 20 11 8 26 14 35 14 8 0 28 7 44 15 15 8 34 15 41 15 14 0 286 137 295 148 3 4 32 20 65 35 33 16 72 43 86 60 28 34 52 47 162 93 37 16 67 32 67 36 0 5 8 8 18 8 33 1 121 46 161 83 22 20 43 37 47 37 3 0 47 38 96 85 49 47 94 85 100 85 30 0 198 187 198 220 0 5 5 10 10 10 6 0 10 6 10 13 0 6 18 36 40 65 22 29 40 56 40 61 0 5 7 14 15 21 8 7 29 40 46 74 17 33 36 66 42 71 7 6 27 40 45 76 18 37 39 73 48 80 15 12 54 90 54 108 0 5 14 25 30 43 17 18 30 37 30 43 1 5 9 28 20 50 11 22 19 46 20 53 0 6 4 12 9 12 4 0 18 35 30 78 12 42 27 89 33 104 5 15 8 29 7 32 -2 2 4 13 13 23 17 19 58 158 58 199 0 20 34 141 50 179 5 11 12 42 15 69 4 27 13 63 20 80 7 17 21 58 30 91 9 33 32 110 51 171 18 61 34 119 34 128 0 9 4 24 10 34 11 19 40 126 43 157 1 11 5 25 9 30 8 13 75 231 93 305 24 100 32 125 43 146 13 24 44 156 67 284 16 92 44 204 66 265 6 17 14 42 16 58 l5 27 -893 0 -894 0 44 -25 c23 -14 47 -25 52 -25 5 0 9 -4 9 -8 0 -5 24 -24 53 -42 74 -47 161 -130 137 -130 -10 0 -25 6 -32 13 -35 32 -150 81 -255 107 l-33 8 19 -27 c20 -29 129 -239 148 -286 7 -17 19 -48 28 -70 19 -47 22 -56 63 -155 46 -111 62 -159 62 -191 0 -34 -16 -38 -26 -6 -4 12 -24 59 -45 105 -22 46 -39 87 -39 93 0 5 -4 9 -9 9 -5 0 -11 8 -14 18 -7 22 -71 137 -124 222 -22 36 -54 92 -73 125 -37 68 -77 124 -147 207 l-48 57 -66 1 -66 0 -6 -143 c-3 -79 -11 -156 -16 -170 -8 -22 -6 -34 9 -62 20 -36 45 -99 82 -210 11 -33 23 -69 28 -80 4 -11 17 -47 28 -80 19 -55 29 -90 52 -185 4 -19 17 -69 28 -110 11 -41 22 -103 26 -138 3 -35 12 -94 20 -130 9 -37 22 -107 30 -157 8 -49 20 -112 25 -140 38 -179 44 -217 48 -275 3 -36 9 -69 14 -75 12 -12 12 -385 -1 -385 -5 0 -12 17 -15 38 -34 213 -26 181 -110 467 -26 88 -51 180 -56 205 -12 58 -26 104 -49 160 -10 25 -23 65 -30 90 -21 77 -62 195 -71 205 -5 5 -9 18 -9 29 0 10 -23 66 -50 122 -28 56 -50 106 -50 111 0 10 -79 98 -82 92 -4 -5 -46 -123 -65 -181 -9 -27 -20 -48 -26 -48 -15 0 -2 79 67 380 34 151 46 241 46 344 0 61 5 146 12 191 6 44 8 93 4 108 l-6 27 -5029 0 -5029 0 -6 -27 c-3 -16 -8 -102 -11 -193 -6 -153 -27 -290 -64 -415 -5 -16 -17 -66 -26 -110 -10 -44 -27 -105 -40 -135 -12 -30 -37 -100 -54 -155 -18 -55 -36 -109 -41 -120 -5 -11 -16 -47 -26 -80 -9 -33 -21 -65 -25 -70 -4 -6 -16 -44 -28 -85 -27 -104 -80 -252 -102 -290 -5 -8 -12 -22 -15 -30 -3 -8 -15 -34 -25 -57 -10 -24 -19 -48 -19 -55 0 -20 -64 -139 -105 -196 -38 -53 -52 -61 -73 -40 -14 14 -16 74 -3 82 9 6 48 115 80 226 23 80 56 264 72 395 5 44 19 134 30 200 31 183 53 337 70 495 5 47 14 110 20 140 19 105 38 286 41 403 l3 117 -392 0 -391 0 -12 -37 c-6 -21 -19 -56 -29 -78 -10 -22 -26 -65 -36 -95 -10 -30 -31 -83 -47 -118 -15 -34 -28 -69 -28 -77 0 -7 -4 -16 -9 -19 -5 -3 -12 -23 -15 -43 -4 -21 -22 -81 -41 -133 -18 -52 -45 -135 -60 -183 -24 -75 -46 -112 -59 -96 -2 2 1 56 5 119 8 109 17 185 39 310 5 30 16 109 25 175 8 66 22 146 30 178 28 109 88 97 -503 97 -285 0 -521 -2 -523 -5z m6438 -2822 c-4 -3 -7 0 -7 7 0 7 3 10 7 7 3 -4 3 -10 0 -14z m3030 -5470 c-4 -3 -7 0 -7 7 0 7 3 10 7 7 3 -4 3 -10 0 -14z"/>
 </g>
<g id="layer106" fill="#cc9e81" stroke="none">
 <path d="M709 15995 c-3 -2 -2 -39 2 -82 4 -43 10 -111 13 -151 4 -39 11 -82 16 -95 9 -20 19 -72 55 -282 26 -153 34 -200 45 -255 6 -30 15 -75 19 -100 4 -25 13 -58 20 -74 6 -16 9 -31 7 -34 -3 -2 1 -19 8 -37 8 -17 19 -65 26 -106 6 -41 21 -99 32 -129 32 -90 50 -171 52 -240 1 -36 8 -81 15 -100 8 -19 17 -44 21 -55 4 -11 14 -38 23 -60 8 -22 24 -71 35 -110 28 -96 77 -225 101 -265 12 -21 25 -51 67 -160 20 -52 50 -119 65 -149 16 -31 29 -59 29 -64 0 -4 16 -39 35 -78 19 -39 35 -78 35 -87 0 -14 46 -116 62 -137 5 -5 27 -37 51 -70 30 -42 59 -69 93 -86 27 -15 63 -33 79 -42 17 -9 53 -27 80 -40 60 -29 118 -60 125 -67 3 -3 12 -9 21 -15 60 -38 105 -70 128 -94 14 -15 48 -42 76 -61 27 -19 59 -42 70 -52 37 -32 130 -97 169 -119 21 -11 57 -37 78 -57 22 -21 47 -41 57 -47 9 -5 40 -32 69 -59 28 -27 76 -65 105 -84 28 -19 54 -38 57 -42 3 -5 50 -32 105 -60 137 -72 158 -83 172 -97 7 -6 30 -17 50 -24 21 -7 52 -20 68 -31 17 -10 37 -20 45 -24 26 -10 325 -158 330 -164 9 -9 64 -39 160 -87 52 -26 101 -53 108 -60 7 -7 30 -20 50 -30 20 -9 53 -27 72 -39 50 -32 131 -77 230 -126 47 -24 87 -46 88 -50 2 -5 8 -8 13 -8 6 0 41 -20 79 -45 38 -25 73 -45 78 -45 4 0 24 -12 43 -26 19 -14 54 -36 79 -48 25 -12 63 -33 85 -47 22 -13 54 -31 70 -39 17 -8 46 -26 65 -40 19 -14 44 -31 55 -37 37 -23 320 -160 355 -173 52 -18 204 -93 208 -102 2 -4 12 -8 23 -8 12 0 19 -7 19 -20 0 -11 6 -19 12 -18 7 2 14 -8 16 -22 2 -14 13 -37 23 -51 10 -15 19 -30 19 -34 0 -8 46 -104 62 -129 7 -11 24 -32 38 -46 52 -56 108 -127 145 -185 20 -33 42 -61 46 -63 5 -2 9 -12 9 -22 0 -22 51 -155 87 -229 15 -30 51 -80 80 -112 29 -31 53 -61 53 -66 0 -11 33 -43 44 -43 11 0 1 99 -18 190 -49 236 -74 463 -56 530 6 25 20 79 30 120 51 201 59 231 70 267 7 21 16 47 21 58 4 11 9 29 12 40 8 35 70 200 76 205 6 5 33 55 106 195 23 44 59 114 81 155 21 41 42 77 45 80 13 10 77 147 89 190 7 25 16 54 20 65 5 11 16 43 26 70 21 59 76 164 114 220 15 22 40 65 55 95 15 30 39 79 54 107 14 29 29 53 34 53 4 0 7 5 7 11 0 7 30 55 68 108 37 53 84 122 105 153 20 32 62 81 93 110 31 29 66 73 79 98 40 77 62 92 234 164 74 31 185 105 257 173 27 27 79 68 113 93 35 25 78 57 96 73 18 15 35 27 39 27 12 0 84 66 122 111 48 57 94 185 94 261 l1 43 18 -25 c11 -14 31 -38 45 -55 14 -16 26 -36 26 -42 0 -7 47 -64 105 -125 58 -62 105 -117 105 -123 0 -5 44 -54 98 -107 54 -53 107 -116 119 -140 11 -24 27 -58 36 -75 8 -18 18 -47 22 -63 12 -53 100 -222 160 -305 32 -44 95 -122 142 -173 93 -104 137 -169 170 -252 37 -95 120 -293 141 -335 10 -22 32 -76 47 -120 15 -44 41 -108 56 -142 16 -35 40 -100 55 -145 14 -46 32 -96 40 -113 7 -16 21 -57 30 -90 9 -33 20 -76 25 -95 6 -19 15 -53 20 -75 6 -21 14 -44 18 -50 17 -20 50 -152 65 -260 9 -60 23 -155 32 -210 24 -155 33 -364 25 -633 -4 -136 -5 -249 -3 -252 4 -5 51 52 52 64 0 4 13 28 30 53 16 24 30 48 30 52 0 4 9 16 20 26 11 10 20 26 20 35 0 10 7 23 15 30 8 7 15 18 15 24 0 6 18 37 40 70 22 32 40 63 40 69 0 21 68 159 115 232 17 28 42 71 54 97 12 25 29 52 37 59 11 9 12 14 3 19 -8 6 -8 9 0 14 6 4 11 2 11 -4 0 -14 48 -5 88 16 15 8 32 14 38 14 5 0 29 9 52 20 22 11 45 20 50 20 5 0 29 15 53 32 24 18 51 37 60 43 58 37 83 56 117 86 58 52 131 92 232 126 25 8 52 21 60 28 8 7 35 18 60 25 25 7 69 23 98 36 29 13 55 24 59 24 3 0 52 22 107 49 132 64 229 103 351 141 55 18 111 37 125 44 14 7 57 24 95 37 39 13 76 29 83 36 7 7 20 13 29 13 8 0 29 6 46 14 18 8 57 22 87 32 30 11 81 34 113 51 33 18 62 33 65 33 4 0 65 29 137 64 71 35 155 71 185 80 30 10 89 30 130 46 41 16 91 32 110 36 19 3 44 13 55 20 11 8 26 14 35 14 8 0 28 7 44 15 15 8 34 15 41 15 14 0 286 137 295 148 3 4 32 20 65 35 33 16 72 43 86 60 28 34 52 47 162 93 37 16 67 32 67 36 0 5 8 8 18 8 33 1 121 46 161 83 22 20 43 37 47 37 3 0 47 38 96 85 49 47 94 85 100 85 30 0 198 187 198 220 0 5 5 10 10 10 6 0 10 6 10 13 0 6 18 36 40 65 22 29 40 56 40 61 0 5 7 14 15 21 8 7 29 40 46 74 17 33 36 66 42 71 7 6 27 40 45 76 18 37 39 73 48 80 15 12 54 90 54 108 0 5 14 25 30 43 17 18 30 37 30 43 1 5 9 28 20 50 11 22 19 46 20 53 0 6 4 12 9 12 4 0 18 35 30 78 12 42 27 89 33 104 5 15 8 29 7 32 -2 2 4 13 13 23 17 19 58 158 58 199 0 20 34 141 50 179 5 11 12 42 15 69 4 27 13 63 20 80 7 17 21 58 30 91 9 33 32 110 51 171 18 61 34 119 34 128 0 9 4 24 10 34 11 19 40 126 43 157 1 11 5 25 9 30 8 13 75 231 93 305 24 100 32 125 43 146 13 24 44 156 67 284 16 92 44 204 66 265 6 17 14 42 16 58 l5 27 -893 0 -894 0 44 -25 c23 -14 47 -25 52 -25 5 0 9 -4 9 -8 0 -5 24 -24 53 -42 74 -47 161 -130 137 -130 -10 0 -25 6 -32 13 -35 32 -150 81 -255 107 l-33 8 19 -27 c20 -29 129 -239 148 -286 7 -17 19 -48 28 -70 19 -47 22 -56 63 -155 46 -111 62 -159 62 -191 0 -34 -16 -38 -26 -6 -4 12 -24 59 -45 105 -22 46 -39 87 -39 93 0 5 -4 9 -9 9 -5 0 -11 8 -14 18 -7 22 -71 137 -124 222 -22 36 -54 92 -73 125 -37 68 -77 124 -147 207 l-48 57 -66 1 -66 0 -6 -143 c-3 -79 -11 -156 -16 -170 -8 -22 -6 -34 9 -62 20 -36 45 -99 82 -210 11 -33 23 -69 28 -80 4 -11 17 -47 28 -80 19 -55 29 -90 52 -185 4 -19 17 -69 28 -110 11 -41 22 -103 26 -138 3 -35 12 -94 20 -130 9 -37 22 -107 30 -157 8 -49 20 -112 25 -140 38 -179 44 -217 48 -275 3 -36 9 -69 14 -75 12 -12 12 -385 -1 -385 -5 0 -12 17 -15 38 -34 213 -26 181 -110 467 -26 88 -51 180 -56 205 -12 58 -26 104 -49 160 -10 25 -23 65 -30 90 -21 77 -62 195 -71 205 -5 5 -9 18 -9 29 0 10 -23 66 -50 122 -28 56 -50 106 -50 111 0 10 -79 98 -82 92 -4 -5 -46 -123 -65 -181 -9 -27 -20 -48 -26 -48 -15 0 -2 79 67 380 34 151 46 241 46 344 0 61 5 146 12 191 6 44 8 93 4 108 l-6 27 -5029 0 -5029 0 -6 -27 c-3 -16 -8 -102 -11 -193 -6 -153 -27 -290 -64 -415 -5 -16 -17 -66 -26 -110 -10 -44 -27 -105 -40 -135 -12 -30 -37 -100 -54 -155 -18 -55 -36 -109 -41 -120 -5 -11 -16 -47 -26 -80 -9 -33 -21 -65 -25 -70 -4 -6 -16 -44 -28 -85 -27 -104 -80 -252 -102 -290 -5 -8 -12 -22 -15 -30 -3 -8 -15 -34 -25 -57 -10 -24 -19 -48 -19 -55 0 -20 -64 -139 -105 -196 -38 -53 -52 -61 -73 -40 -14 14 -16 74 -3 82 9 6 48 115 80 226 23 80 56 264 72 395 5 44 19 134 30 200 31 183 53 337 70 495 5 47 14 110 20 140 19 105 38 286 41 403 l3 117 -392 0 -391 0 -12 -37 c-6 -21 -19 -56 -29 -78 -10 -22 -26 -65 -36 -95 -10 -30 -31 -83 -47 -118 -15 -34 -28 -69 -28 -77 0 -7 -4 -16 -9 -19 -5 -3 -12 -23 -15 -43 -4 -21 -22 -81 -41 -133 -18 -52 -45 -135 -60 -183 -24 -75 -46 -112 -59 -96 -2 2 1 56 5 119 8 109 17 185 39 310 5 30 16 109 25 175 8 66 22 146 30 178 28 109 88 97 -503 97 -285 0 -521 -2 -523 -5z m6438 -2822 c-4 -3 -7 0 -7 7 0 7 3 10 7 7 3 -4 3 -10 0 -14z"/>
 <path d="M7650 9915 c-36 -8 -108 -19 -160 -26 -52 -6 -142 -26 -200 -44 -58 -19 -149 -45 -202 -59 -125 -33 -191 -58 -231 -89 -18 -13 -43 -28 -57 -32 -38 -12 -161 -75 -195 -100 -16 -13 -57 -37 -90 -55 -33 -17 -73 -40 -90 -50 -16 -11 -58 -34 -92 -51 -46 -24 -81 -54 -133 -113 -89 -102 -79 -91 -120 -129 -21 -19 -41 -49 -48 -73 -7 -23 -24 -68 -39 -100 -14 -33 -27 -63 -28 -69 -5 -24 -20 -62 -56 -137 -22 -44 -39 -88 -39 -98 0 -10 -4 -22 -10 -25 -5 -3 -10 -17 -10 -29 0 -13 -11 -40 -25 -60 -27 -40 -51 -121 -60 -206 -3 -30 -10 -73 -15 -95 -5 -22 -17 -74 -25 -115 -9 -41 -21 -83 -26 -92 -5 -10 -9 -31 -9 -46 0 -29 -24 -87 -40 -97 -5 -3 -11 -18 -15 -33 -3 -16 -28 -51 -55 -77 -28 -27 -50 -54 -50 -61 0 -6 -9 -19 -20 -29 -11 -10 -20 -22 -20 -27 0 -5 -19 -30 -42 -54 -49 -52 -98 -127 -98 -149 0 -8 -4 -23 -9 -33 -38 -79 -46 -98 -43 -114 2 -10 -1 -18 -6 -18 -6 0 -12 -17 -16 -37 -13 -92 -19 -113 -32 -124 -8 -6 -14 -20 -14 -30 0 -25 -20 -110 -31 -131 -5 -10 -9 -31 -9 -47 0 -17 -4 -33 -10 -36 -5 -3 -10 -23 -10 -44 0 -22 -6 -44 -15 -51 -8 -7 -15 -25 -15 -41 0 -16 -4 -29 -10 -29 -6 0 -10 -26 -10 -58 0 -32 -4 -62 -9 -67 -5 -6 -13 -39 -16 -75 -4 -36 -11 -71 -17 -78 -15 -18 -4 -218 15 -262 28 -64 81 -100 151 -100 48 0 165 26 180 41 6 5 16 9 23 9 26 0 96 61 141 121 l46 61 13 -48 c7 -27 18 -111 23 -187 6 -75 17 -169 25 -208 8 -39 15 -102 15 -142 0 -86 14 -169 46 -264 13 -39 24 -79 24 -88 0 -9 6 -31 14 -48 7 -18 24 -63 36 -102 12 -38 28 -86 36 -105 44 -103 50 -120 74 -230 11 -52 25 -114 30 -138 6 -23 10 -68 10 -100 0 -36 6 -66 15 -78 10 -14 15 -48 15 -129 1 -203 31 -398 70 -465 5 -8 19 -33 30 -55 31 -60 45 -84 67 -108 26 -30 113 -163 113 -174 0 -11 167 -180 216 -219 22 -16 54 -36 72 -43 17 -7 32 -16 32 -20 0 -20 311 -148 378 -156 20 -2 71 -9 112 -14 41 -6 120 -11 175 -11 55 -1 136 -5 180 -10 119 -13 486 -34 595 -34 246 1 663 15 679 23 9 5 50 14 91 20 72 10 165 30 388 84 57 14 113 34 125 44 11 10 46 43 78 73 70 66 100 91 125 106 80 46 117 64 122 60 4 -4 57 33 117 82 6 5 16 11 23 13 28 9 135 127 153 169 11 25 34 72 51 105 44 85 48 105 59 245 5 69 12 157 15 195 3 39 5 114 4 168 -1 62 3 103 10 112 6 8 13 24 15 37 9 54 28 124 36 133 5 5 9 21 9 35 0 14 6 32 13 38 8 9 14 64 18 165 3 84 9 167 12 185 3 18 11 58 17 89 5 31 10 74 10 96 0 22 7 60 15 86 17 52 45 161 52 206 3 17 10 35 15 41 4 7 18 58 30 115 25 115 29 261 14 497 -8 119 -7 132 8 132 9 0 16 -5 16 -11 0 -18 62 -99 76 -99 7 0 17 -6 21 -13 16 -28 90 -66 156 -81 85 -20 116 -20 158 -1 55 24 68 39 85 96 9 30 19 59 23 64 12 17 14 172 2 179 -6 4 -11 40 -11 86 0 43 -4 90 -9 103 -6 14 -12 46 -15 71 -3 26 -14 65 -25 89 -10 23 -25 60 -32 82 -8 22 -17 42 -21 45 -3 3 -9 27 -12 53 -3 26 -24 85 -46 132 -22 46 -40 89 -40 95 0 11 -29 61 -41 70 -4 3 -14 28 -22 55 -8 28 -28 77 -45 110 -16 33 -32 72 -36 88 -3 15 -11 27 -16 27 -6 0 -10 9 -10 19 0 34 -138 160 -175 161 -6 0 -22 11 -37 25 -15 14 -31 25 -36 25 -5 0 -26 18 -45 39 -40 45 -82 129 -93 187 -4 22 -16 57 -27 79 -34 67 -37 74 -37 91 0 8 -11 30 -24 47 -23 33 -89 187 -102 242 -10 43 -52 135 -78 170 -12 17 -30 47 -40 68 -9 20 -21 37 -26 37 -6 0 -10 6 -10 13 0 8 -9 22 -20 32 -11 10 -20 24 -20 32 0 7 -7 16 -15 19 -8 4 -15 12 -15 20 0 8 -7 14 -15 14 -8 0 -15 5 -15 11 0 6 -23 33 -51 61 -28 27 -58 62 -67 77 -33 54 -165 148 -328 232 -117 61 -164 91 -214 135 -33 30 -195 114 -295 154 -44 17 -84 35 -90 40 -17 14 -255 86 -345 105 -117 24 -544 30 -640 10z m2527 -2207 c-3 -8 -6 -5 -6 6 -1 11 2 17 5 13 3 -3 4 -12 1 -19z"/>
 </g>
<g id="layer107" fill="#9bb1be" stroke="none">
 <path d="M709 15995 c-3 -2 -2 -39 2 -82 4 -43 10 -111 13 -151 4 -39 11 -82 16 -95 9 -20 19 -72 55 -282 26 -153 34 -200 45 -255 6 -30 15 -75 19 -100 4 -25 13 -58 20 -74 6 -16 9 -31 7 -34 -3 -2 1 -19 8 -37 8 -17 19 -65 26 -106 6 -41 21 -99 32 -129 32 -90 50 -171 52 -240 1 -36 8 -81 15 -100 8 -19 17 -44 21 -55 4 -11 14 -38 23 -60 8 -22 24 -71 35 -110 28 -96 77 -225 101 -265 12 -21 25 -51 67 -160 20 -52 50 -119 65 -149 16 -31 29 -59 29 -64 0 -4 16 -39 35 -78 19 -39 35 -78 35 -87 0 -14 46 -116 62 -137 5 -5 27 -37 51 -70 30 -42 59 -69 93 -86 27 -15 63 -33 79 -42 17 -9 53 -27 80 -40 60 -29 118 -60 125 -67 3 -3 12 -9 21 -15 60 -38 105 -70 128 -94 14 -15 48 -42 76 -61 27 -19 59 -42 70 -52 37 -32 130 -97 169 -119 21 -11 57 -37 78 -57 22 -21 47 -41 57 -47 9 -5 40 -32 69 -59 28 -27 76 -65 105 -84 28 -19 54 -38 57 -42 3 -5 50 -32 105 -60 137 -72 158 -83 172 -97 7 -6 30 -17 50 -24 21 -7 52 -20 68 -31 17 -10 37 -20 45 -24 26 -10 325 -158 330 -164 9 -9 64 -39 160 -87 52 -26 101 -53 108 -60 7 -7 30 -20 50 -30 20 -9 53 -27 72 -39 50 -32 131 -77 230 -126 47 -24 87 -46 88 -50 2 -5 8 -8 13 -8 6 0 41 -20 79 -45 38 -25 73 -45 78 -45 4 0 24 -12 43 -26 19 -14 54 -36 79 -48 25 -12 63 -33 85 -47 22 -13 54 -31 70 -39 17 -8 46 -26 65 -40 19 -14 44 -31 55 -37 37 -23 320 -160 355 -173 52 -18 204 -93 208 -102 2 -4 12 -8 23 -8 12 0 19 -7 19 -20 0 -11 6 -19 12 -18 7 2 14 -8 16 -22 2 -14 13 -37 23 -51 10 -15 19 -30 19 -34 0 -8 46 -104 62 -129 7 -11 24 -32 38 -46 52 -56 108 -127 145 -185 20 -33 42 -61 46 -63 5 -2 9 -12 9 -22 0 -22 51 -155 87 -229 15 -30 51 -80 80 -112 29 -31 53 -61 53 -66 0 -11 33 -43 44 -43 11 0 1 99 -18 190 -49 236 -74 463 -56 530 6 25 20 79 30 120 51 201 59 231 70 267 7 21 16 47 21 58 4 11 9 29 12 40 8 35 70 200 76 205 6 5 33 55 106 195 23 44 59 114 81 155 21 41 42 77 45 80 13 10 77 147 89 190 7 25 16 54 20 65 5 11 16 43 26 70 21 59 76 164 114 220 15 22 40 65 55 95 15 30 39 79 54 107 14 29 29 53 34 53 4 0 7 5 7 11 0 7 30 55 68 108 37 53 84 122 105 153 20 32 62 81 93 110 31 29 66 73 79 98 40 77 62 92 234 164 74 31 185 105 257 173 27 27 79 68 113 93 35 25 78 57 96 73 18 15 35 27 39 27 12 0 84 66 122 111 48 57 94 185 94 261 l1 43 18 -25 c11 -14 31 -38 45 -55 14 -16 26 -36 26 -42 0 -7 47 -64 105 -125 58 -62 105 -117 105 -123 0 -5 44 -54 98 -107 54 -53 107 -116 119 -140 11 -24 27 -58 36 -75 8 -18 18 -47 22 -63 12 -53 100 -222 160 -305 32 -44 95 -122 142 -173 93 -104 137 -169 170 -252 37 -95 120 -293 141 -335 10 -22 32 -76 47 -120 15 -44 41 -108 56 -142 16 -35 40 -100 55 -145 14 -46 32 -96 40 -113 7 -16 21 -57 30 -90 9 -33 20 -76 25 -95 6 -19 15 -53 20 -75 6 -21 14 -44 18 -50 17 -20 50 -152 65 -260 9 -60 23 -155 32 -210 24 -155 33 -364 25 -633 -4 -136 -5 -249 -3 -252 4 -5 51 52 52 64 0 4 13 28 30 53 16 24 30 48 30 52 0 4 9 16 20 26 11 10 20 26 20 35 0 10 7 23 15 30 8 7 15 18 15 24 0 6 18 37 40 70 22 32 40 63 40 69 0 21 68 159 115 232 17 28 42 71 54 97 12 25 29 52 37 59 11 9 12 14 3 19 -8 6 -8 9 0 14 6 4 11 2 11 -4 0 -14 48 -5 88 16 15 8 32 14 38 14 5 0 29 9 52 20 22 11 45 20 50 20 5 0 29 15 53 32 24 18 51 37 60 43 58 37 83 56 117 86 58 52 131 92 232 126 25 8 52 21 60 28 8 7 35 18 60 25 25 7 69 23 98 36 29 13 55 24 59 24 3 0 52 22 107 49 132 64 229 103 351 141 55 18 111 37 125 44 14 7 57 24 95 37 39 13 76 29 83 36 7 7 20 13 29 13 8 0 29 6 46 14 18 8 57 22 87 32 30 11 81 34 113 51 33 18 62 33 65 33 4 0 65 29 137 64 71 35 155 71 185 80 30 10 89 30 130 46 41 16 91 32 110 36 19 3 44 13 55 20 11 8 26 14 35 14 8 0 28 7 44 15 15 8 34 15 41 15 14 0 286 137 295 148 3 4 32 20 65 35 33 16 72 43 86 60 28 34 52 47 162 93 37 16 67 32 67 36 0 5 8 8 18 8 33 1 121 46 161 83 22 20 43 37 47 37 3 0 47 38 96 85 49 47 94 85 100 85 30 0 198 187 198 220 0 5 5 10 10 10 6 0 10 6 10 13 0 6 18 36 40 65 22 29 40 56 40 61 0 5 7 14 15 21 8 7 29 40 46 74 17 33 36 66 42 71 7 6 27 40 45 76 18 37 39 73 48 80 15 12 54 90 54 108 0 5 14 25 30 43 17 18 30 37 30 43 1 5 9 28 20 50 11 22 19 46 20 53 0 6 4 12 9 12 4 0 18 35 30 78 12 42 27 89 33 104 5 15 8 29 7 32 -2 2 4 13 13 23 17 19 58 158 58 199 0 20 34 141 50 179 5 11 12 42 15 69 4 27 13 63 20 80 7 17 21 58 30 91 9 33 32 110 51 171 18 61 34 119 34 128 0 9 4 24 10 34 11 19 40 126 43 157 1 11 5 25 9 30 8 13 75 231 93 305 24 100 32 125 43 146 13 24 44 156 67 284 16 92 44 204 66 265 6 17 14 42 16 58 l5 27 -893 0 -894 0 44 -25 c23 -14 47 -25 52 -25 5 0 9 -4 9 -8 0 -5 24 -24 53 -42 74 -47 161 -130 137 -130 -10 0 -25 6 -32 13 -35 32 -150 81 -255 107 l-33 8 19 -27 c20 -29 129 -239 148 -286 7 -17 19 -48 28 -70 19 -47 22 -56 63 -155 46 -111 62 -159 62 -191 0 -34 -16 -38 -26 -6 -4 12 -24 59 -45 105 -22 46 -39 87 -39 93 0 5 -4 9 -9 9 -5 0 -11 8 -14 18 -7 22 -71 137 -124 222 -22 36 -54 92 -73 125 -37 68 -77 124 -147 207 l-48 57 -66 1 -66 0 -6 -143 c-3 -79 -11 -156 -16 -170 -8 -22 -6 -34 9 -62 20 -36 45 -99 82 -210 11 -33 23 -69 28 -80 4 -11 17 -47 28 -80 19 -55 29 -90 52 -185 4 -19 17 -69 28 -110 11 -41 22 -103 26 -138 3 -35 12 -94 20 -130 9 -37 22 -107 30 -157 8 -49 20 -112 25 -140 38 -179 44 -217 48 -275 3 -36 9 -69 14 -75 12 -12 12 -385 -1 -385 -5 0 -12 17 -15 38 -34 213 -26 181 -110 467 -26 88 -51 180 -56 205 -12 58 -26 104 -49 160 -10 25 -23 65 -30 90 -21 77 -62 195 -71 205 -5 5 -9 18 -9 29 0 10 -23 66 -50 122 -28 56 -50 106 -50 111 0 10 -79 98 -82 92 -4 -5 -46 -123 -65 -181 -9 -27 -20 -48 -26 -48 -15 0 -2 79 67 380 34 151 46 241 46 344 0 61 5 146 12 191 6 44 8 93 4 108 l-6 27 -5029 0 -5029 0 -6 -27 c-3 -16 -8 -102 -11 -193 -6 -153 -27 -290 -64 -415 -5 -16 -17 -66 -26 -110 -10 -44 -27 -105 -40 -135 -12 -30 -37 -100 -54 -155 -18 -55 -36 -109 -41 -120 -5 -11 -16 -47 -26 -80 -9 -33 -21 -65 -25 -70 -4 -6 -16 -44 -28 -85 -27 -104 -80 -252 -102 -290 -5 -8 -12 -22 -15 -30 -3 -8 -15 -34 -25 -57 -10 -24 -19 -48 -19 -55 0 -20 -64 -139 -105 -196 -38 -53 -52 -61 -73 -40 -14 14 -16 74 -3 82 9 6 48 115 80 226 23 80 56 264 72 395 5 44 19 134 30 200 31 183 53 337 70 495 5 47 14 110 20 140 19 105 38 286 41 403 l3 117 -392 0 -391 0 -12 -37 c-6 -21 -19 -56 -29 -78 -10 -22 -26 -65 -36 -95 -10 -30 -31 -83 -47 -118 -15 -34 -28 -69 -28 -77 0 -7 -4 -16 -9 -19 -5 -3 -12 -23 -15 -43 -4 -21 -22 -81 -41 -133 -18 -52 -45 -135 -60 -183 -24 -75 -46 -112 -59 -96 -2 2 1 56 5 119 8 109 17 185 39 310 5 30 16 109 25 175 8 66 22 146 30 178 28 109 88 97 -503 97 -285 0 -521 -2 -523 -5z m6438 -2822 c-4 -3 -7 0 -7 7 0 7 3 10 7 7 3 -4 3 -10 0 -14z"/>
 </g>
<g id="layer108" fill="#9dbaca" stroke="none">
 <path d="M7766 15918 c-4 -45 -11 -100 -16 -122 -10 -44 -25 -666 -24 -961 1 -184 8 -257 38 -380 10 -38 22 -92 29 -120 10 -45 49 -127 133 -283 16 -28 56 -82 89 -119 33 -37 77 -91 97 -120 21 -30 47 -63 58 -75 11 -12 20 -28 20 -35 0 -7 47 -64 105 -125 58 -62 105 -117 105 -123 0 -5 44 -54 98 -107 54 -53 107 -116 119 -140 11 -24 27 -58 36 -75 8 -18 18 -47 22 -63 12 -53 100 -222 160 -305 32 -44 95 -122 142 -173 93 -104 137 -169 170 -252 37 -95 120 -293 141 -335 10 -22 32 -76 47 -120 15 -44 41 -108 56 -142 16 -35 40 -100 55 -145 14 -46 32 -96 40 -113 7 -16 21 -57 30 -90 9 -33 20 -76 25 -95 6 -19 14 -52 20 -73 5 -21 13 -45 19 -55 28 -52 41 -101 60 -232 11 -80 28 -188 37 -240 24 -136 30 -307 25 -610 l-5 -265 27 24 c14 14 26 30 26 36 0 7 12 30 28 51 32 47 45 70 84 143 16 30 42 72 58 95 17 22 30 44 30 49 0 4 12 34 26 65 14 31 30 67 35 80 5 12 28 53 52 90 24 37 54 88 66 114 13 27 27 51 33 54 5 3 7 12 4 20 -3 7 -1 16 4 19 4 3 10 0 12 -6 4 -13 90 14 186 57 29 13 55 24 59 24 3 0 22 12 42 28 20 15 43 32 52 37 54 34 84 56 119 88 21 21 44 37 50 37 5 0 10 4 10 8 0 10 96 54 168 78 26 9 54 22 62 29 8 6 40 20 70 30 56 19 82 28 160 63 25 10 60 25 78 33 17 8 32 17 32 21 0 5 5 8 12 8 11 0 80 29 120 51 25 13 151 56 233 80 62 18 127 43 175 68 9 5 31 12 50 16 19 4 40 14 48 21 7 8 21 14 31 14 9 0 21 4 27 8 5 5 43 19 84 32 41 13 82 28 90 34 14 11 74 41 225 112 33 15 62 31 65 34 8 9 81 37 145 56 33 10 82 28 108 40 27 13 74 28 105 35 31 6 66 18 77 25 11 8 26 14 35 14 8 0 28 7 44 15 15 8 33 15 40 15 12 0 75 31 211 105 44 24 113 59 153 78 39 20 72 41 72 47 0 23 46 53 160 101 30 13 62 29 71 36 8 7 23 13 32 13 9 0 18 4 21 9 3 4 25 14 49 20 25 8 59 28 83 51 21 22 43 39 47 40 4 0 32 24 63 54 58 59 121 111 141 117 21 7 153 141 153 155 0 8 3 14 8 14 4 0 13 13 20 29 7 16 35 59 63 96 27 36 49 70 49 74 0 5 7 14 15 21 9 7 30 42 47 77 17 36 37 67 44 70 8 3 14 10 14 16 0 21 43 102 70 132 15 17 37 55 49 85 13 30 34 66 47 81 13 14 24 29 24 35 1 5 9 27 20 49 11 22 19 46 20 53 0 6 4 12 9 12 4 0 14 21 21 48 7 26 21 72 32 102 10 30 20 60 22 66 1 7 7 18 13 25 13 17 27 63 43 144 15 75 22 106 54 224 14 52 26 103 26 112 0 10 6 30 14 46 8 15 22 55 31 88 9 33 29 103 45 155 16 52 34 118 40 145 6 28 14 59 19 70 13 31 35 108 36 127 0 9 3 20 8 24 4 4 7 16 7 26 0 10 5 26 10 36 14 22 57 168 76 257 9 39 26 95 39 125 12 30 26 73 30 95 4 22 9 47 11 55 2 8 10 51 18 95 31 155 74 327 87 340 5 5 9 19 9 32 l0 23 -887 0 -888 0 33 -20 c18 -11 35 -20 37 -20 8 0 157 -112 197 -148 21 -19 38 -38 38 -43 0 -17 -31 -9 -63 15 -37 28 -107 60 -192 87 -78 24 -80 24 -57 -8 41 -58 160 -304 197 -408 9 -27 24 -65 32 -82 37 -86 63 -167 63 -198 0 -42 -16 -46 -31 -7 -26 71 -172 349 -246 467 -27 44 -60 102 -73 127 -23 46 -60 96 -141 191 -40 46 -43 47 -99 47 l-57 0 -7 -112 c-3 -62 -11 -139 -17 -170 -10 -52 -9 -62 11 -105 32 -67 90 -222 90 -239 0 -7 6 -28 14 -46 38 -90 113 -359 126 -453 5 -33 16 -98 25 -145 9 -47 20 -114 25 -150 11 -90 21 -143 31 -155 4 -6 11 -39 14 -75 4 -36 13 -92 21 -125 8 -33 14 -77 14 -97 0 -20 7 -65 16 -100 13 -49 15 -95 12 -211 -5 -138 -9 -169 -24 -154 -3 3 -14 54 -24 114 -11 60 -38 172 -61 248 -22 77 -46 163 -51 190 -5 28 -13 55 -18 60 -5 6 -15 44 -24 85 -16 79 -34 138 -46 155 -5 6 -18 48 -31 95 -12 47 -37 123 -56 170 -18 47 -33 90 -33 95 0 6 -12 36 -26 66 -15 29 -36 74 -47 99 -23 48 -83 130 -97 130 -4 0 -10 -12 -13 -27 -10 -61 -64 -188 -80 -191 -25 -5 -23 13 17 161 9 32 16 69 16 83 0 14 9 56 20 92 28 93 39 173 51 352 5 85 13 187 18 225 5 39 6 85 4 103 l-5 32 -2693 0 -2692 0 -7 -82z m2381 -2185 c-4 -3 -10 -3 -14 0 -3 4 0 7 7 7 7 0 10 -3 7 -7z"/>
 <path d="M8050 13646 c-18 -34 -94 -80 -172 -104 -36 -12 -121 -44 -189 -71 -67 -28 -128 -51 -135 -51 -8 0 -33 -9 -57 -19 -23 -11 -76 -28 -117 -39 -67 -18 -212 -67 -265 -91 -95 -42 -135 -64 -151 -82 -10 -12 -49 -41 -87 -66 -37 -24 -82 -60 -100 -81 -17 -20 -66 -70 -107 -112 -41 -41 -86 -96 -99 -121 l-24 -46 -71 13 c-81 14 -149 37 -186 62 -84 56 -351 186 -429 208 -31 9 -60 20 -66 24 -11 8 -109 42 -170 58 -129 34 -194 45 -312 49 l-133 6 -30 -33 c-18 -19 -30 -43 -30 -59 0 -36 18 -202 37 -341 8 -63 17 -169 19 -235 12 -392 41 -917 55 -1010 6 -38 14 -116 19 -173 5 -57 13 -124 19 -150 5 -26 15 -72 21 -102 12 -61 31 -110 42 -110 5 0 8 -7 8 -16 0 -9 14 -46 30 -84 17 -38 30 -78 30 -90 0 -12 5 -18 10 -15 6 3 13 -2 16 -12 9 -26 52 -122 73 -163 28 -56 44 -80 76 -115 54 -58 101 -119 140 -180 21 -33 41 -62 45 -65 4 -3 10 -18 14 -35 28 -112 100 -257 164 -326 28 -31 52 -60 52 -63 0 -4 9 -16 19 -28 l20 -20 6 36 c4 20 4 49 1 64 -30 120 -72 383 -82 499 -3 47 -1 96 6 123 6 25 20 79 30 120 51 201 59 231 70 267 7 21 16 47 21 58 4 11 9 29 12 40 8 35 70 200 76 205 6 5 33 55 106 195 23 44 59 114 81 155 21 41 42 77 45 80 13 10 77 147 89 190 7 25 16 54 20 65 5 11 16 43 26 70 21 59 76 164 114 220 15 22 40 65 55 95 15 30 39 79 54 107 14 29 29 53 34 53 4 0 7 5 7 11 0 7 30 55 68 108 37 53 84 122 105 153 20 32 62 81 93 110 31 29 66 73 79 98 40 77 62 92 234 164 74 31 185 105 257 173 27 27 79 68 113 93 35 25 78 57 96 73 18 15 35 27 39 27 6 0 56 41 85 71 50 50 82 100 100 157 12 37 0 43 -19 8z m-903 -473 c-4 -3 -7 0 -7 7 0 7 3 10 7 7 3 -4 3 -10 0 -14z"/>
 </g>
<g id="layer109" fill="#a5bcc9" stroke="none">
 <path d="M8135 13778 c11 -12 28 -31 38 -42 9 -11 17 -26 17 -33 0 -7 47 -64 105 -125 58 -62 105 -117 105 -123 0 -5 44 -54 98 -107 54 -53 107 -116 119 -140 11 -24 27 -58 36 -75 8 -18 18 -47 22 -63 12 -53 100 -222 160 -305 32 -44 95 -122 142 -173 93 -104 137 -169 170 -252 37 -95 120 -293 141 -335 10 -22 32 -76 47 -120 15 -44 41 -108 56 -142 16 -35 40 -100 55 -145 14 -46 32 -96 40 -113 7 -16 21 -57 30 -90 9 -33 20 -76 25 -95 6 -19 14 -52 20 -73 5 -21 13 -45 19 -55 28 -52 41 -101 60 -232 11 -80 28 -188 37 -240 24 -136 30 -308 25 -610 l-5 -265 22 20 c13 11 29 33 37 50 17 36 42 80 70 120 11 17 28 46 37 65 8 19 32 57 51 85 20 27 36 54 36 58 0 5 12 34 26 65 14 31 30 67 35 79 4 12 21 41 36 65 15 24 33 52 39 63 17 28 79 148 80 155 2 16 37 90 43 90 3 0 15 18 25 40 10 22 26 48 35 58 60 68 86 137 154 407 49 193 78 290 92 317 8 14 15 47 15 72 0 25 9 76 21 113 11 38 28 93 37 123 9 30 22 62 28 70 28 35 54 150 79 344 3 21 7 42 10 46 10 17 43 238 49 330 4 52 13 113 21 135 17 48 20 221 4 262 -6 15 -12 35 -13 43 -4 25 -26 74 -43 92 -20 22 -49 23 -56 3 -11 -28 -81 -115 -93 -115 -7 0 -14 -6 -17 -13 -3 -8 -20 -21 -39 -31 -18 -9 -40 -21 -48 -26 -8 -5 -42 -21 -75 -36 -92 -41 -227 -104 -255 -118 -14 -7 -42 -19 -62 -25 -21 -7 -66 -31 -100 -54 -62 -42 -82 -52 -183 -97 -27 -12 -63 -32 -80 -44 -56 -41 -61 -40 -92 21 -15 31 -59 90 -98 131 -38 41 -77 83 -85 94 -40 53 -164 178 -176 178 -8 0 -14 4 -14 9 0 8 -157 91 -173 91 -8 0 -21 5 -107 43 -20 9 -56 21 -82 28 -35 10 -49 20 -63 46 -22 40 -181 193 -202 193 -4 0 -17 10 -29 21 -23 22 -31 27 -94 62 -27 16 -97 64 -175 122 -116 87 -132 97 -181 116 l-28 10 19 -23z"/>
 <path d="M8047 13640 c-10 -16 -22 -30 -26 -30 -4 0 -18 -9 -31 -20 -13 -11 -58 -31 -101 -45 -42 -13 -106 -36 -141 -51 -132 -55 -182 -74 -195 -74 -7 0 -37 -11 -67 -25 -30 -14 -63 -25 -74 -25 -10 0 -52 -12 -93 -26 -41 -15 -99 -35 -129 -45 -30 -11 -64 -23 -75 -28 -96 -43 -135 -64 -151 -82 -10 -12 -52 -43 -92 -70 -40 -27 -85 -63 -100 -81 -14 -18 -59 -66 -99 -106 -40 -40 -85 -95 -99 -121 l-27 -47 -71 12 c-86 14 -145 35 -206 73 -25 16 -63 38 -85 49 -22 11 -90 44 -150 75 -61 30 -138 63 -170 72 -33 10 -64 21 -70 25 -18 12 -129 48 -180 58 -27 6 -75 17 -105 26 -32 10 -112 19 -192 23 l-137 6 -31 -33 c-18 -19 -30 -43 -30 -59 0 -36 18 -202 37 -341 8 -63 17 -169 19 -235 12 -390 41 -915 55 -1010 6 -38 14 -106 19 -150 12 -117 38 -285 50 -320 19 -58 22 -65 30 -65 4 0 10 -13 13 -29 3 -16 27 -73 52 -127 53 -114 67 -143 91 -199 27 -60 41 -79 164 -230 57 -69 64 -79 84 -118 11 -20 22 -37 26 -37 4 0 10 -14 14 -30 20 -101 99 -261 164 -331 28 -31 52 -60 52 -63 0 -4 9 -16 19 -28 l20 -20 6 36 c4 20 4 49 1 64 -30 120 -72 383 -82 499 -3 47 -1 96 6 123 6 25 20 79 30 120 51 201 59 231 70 267 7 21 16 47 21 58 4 11 9 29 12 40 8 35 70 200 76 205 6 5 33 55 106 195 23 44 59 114 81 155 21 41 42 77 45 80 13 10 77 147 89 190 7 25 16 54 20 65 5 11 16 43 26 70 21 59 76 164 114 220 15 22 40 65 55 95 15 30 39 79 54 107 14 29 29 53 34 53 4 0 7 5 7 11 0 7 30 55 68 108 37 53 84 122 105 153 20 32 62 81 93 110 31 29 66 73 79 98 40 77 62 92 234 164 74 31 185 105 257 173 27 27 79 68 113 93 35 25 78 57 96 73 18 15 35 27 39 27 6 0 56 41 85 71 50 50 82 100 100 157 13 40 1 42 -22 2z m-887 -454 c0 -3 -4 -8 -10 -11 -5 -3 -10 -1 -10 4 0 6 5 11 10 11 6 0 10 -2 10 -4z"/>
 </g>
<g id="layer110" fill="#bbd5e4" stroke="none">
 <path d="M8136 13778 c10 -12 27 -31 37 -42 9 -11 17 -26 17 -33 0 -7 47 -64 105 -125 58 -62 105 -117 105 -123 0 -5 44 -54 98 -107 54 -53 107 -116 119 -140 11 -24 27 -58 36 -75 8 -18 18 -47 22 -63 12 -53 100 -222 160 -305 32 -44 95 -122 142 -173 93 -104 137 -169 170 -252 37 -95 120 -293 141 -335 10 -22 32 -76 47 -120 15 -44 41 -108 56 -142 16 -35 40 -100 55 -145 14 -46 32 -96 40 -113 12 -28 36 -106 53 -180 33 -142 100 279 104 655 1 96 -2 220 -7 274 -7 75 -6 97 3 92 36 -23 74 -190 112 -502 11 -94 25 -188 30 -210 5 -21 11 -100 14 -174 5 -112 2 -156 -15 -255 -12 -66 -25 -149 -29 -185 -4 -36 -11 -72 -14 -80 -18 -40 -29 -283 -32 -668 -4 -466 -6 -458 53 -349 35 65 45 82 59 98 6 8 28 46 48 84 21 39 48 83 61 98 13 16 24 33 24 38 0 9 20 59 53 129 10 22 70 130 104 185 14 23 45 86 79 162 12 28 52 96 88 150 66 101 96 174 122 303 8 41 26 113 40 160 14 47 30 103 36 125 21 78 32 110 45 130 7 11 13 42 13 69 0 27 4 63 9 80 5 17 15 51 21 76 15 56 28 94 51 145 43 101 50 125 64 224 15 103 28 173 45 256 19 89 29 165 34 253 3 51 11 103 17 115 7 12 12 71 13 142 1 127 -15 198 -56 258 -19 26 -58 38 -58 17 0 -5 -16 -32 -36 -60 -38 -53 -104 -105 -169 -135 -22 -10 -85 -39 -140 -65 -126 -60 -214 -100 -221 -100 -9 0 -78 -33 -84 -40 -11 -13 -149 -91 -202 -114 -32 -14 -75 -36 -95 -49 -67 -42 -71 -41 -97 11 -28 54 -51 85 -122 162 -28 30 -66 73 -85 95 -36 42 -135 142 -162 162 -42 33 -367 173 -401 173 -6 0 -21 15 -34 34 -54 79 -259 253 -337 286 -11 5 -46 28 -77 52 -31 24 -66 50 -78 58 -12 8 -41 29 -65 47 -44 33 -97 64 -129 77 -20 7 -20 7 0 -16z"/>
 <path d="M8025 13617 c-33 -35 -56 -47 -130 -71 -49 -16 -108 -37 -130 -47 -111 -48 -165 -70 -220 -85 -33 -9 -65 -20 -71 -25 -5 -5 -37 -15 -70 -23 -164 -40 -391 -138 -461 -199 -30 -26 -71 -56 -92 -67 -21 -10 -54 -38 -75 -62 -21 -24 -71 -77 -110 -118 -40 -41 -83 -93 -95 -116 -23 -41 -23 -41 -74 -37 -68 6 -160 38 -222 77 -27 18 -68 40 -90 49 -22 10 -51 25 -65 33 -24 14 -118 60 -185 89 -16 8 -52 21 -80 30 -27 9 -63 23 -80 30 -54 23 -119 45 -165 55 -25 5 -88 18 -140 29 -128 28 -275 28 -310 1 -24 -18 -25 -24 -25 -117 1 -92 10 -199 35 -403 6 -46 8 -96 5 -110 -3 -14 -1 -79 5 -145 11 -116 24 -356 40 -695 13 -273 68 -657 101 -698 10 -14 19 -32 19 -41 0 -10 4 -21 8 -27 5 -5 19 -37 32 -71 12 -35 26 -63 30 -63 4 0 11 -12 15 -27 3 -15 18 -52 32 -83 60 -134 55 -125 193 -295 19 -23 42 -51 51 -63 10 -11 20 -29 23 -40 4 -11 17 -31 30 -43 13 -13 26 -42 30 -64 18 -94 87 -233 153 -303 29 -32 52 -61 53 -65 0 -4 9 -17 19 -29 l20 -20 6 36 c4 20 4 49 1 64 -30 120 -72 383 -82 499 -3 47 -1 96 6 123 6 25 20 79 30 120 51 201 59 231 70 267 7 21 16 47 21 58 4 11 9 29 12 40 3 11 19 58 36 105 17 47 31 97 31 112 0 27 36 137 69 213 22 49 56 175 82 295 6 30 15 66 20 80 12 37 51 220 56 260 5 49 22 130 50 235 12 50 23 103 23 118 0 37 22 31 31 -9 23 -100 31 -166 36 -297 l6 -148 42 84 c23 46 56 104 72 128 17 24 43 69 58 99 15 30 39 79 54 107 14 29 29 53 34 53 4 0 7 5 7 11 0 7 30 55 68 108 37 53 84 122 105 153 20 32 62 81 93 110 31 29 66 73 79 98 40 77 62 92 234 164 74 31 185 105 257 173 27 27 79 68 113 93 35 25 78 57 96 73 18 15 35 27 39 27 3 0 20 12 38 28 84 72 130 135 142 190 4 17 6 32 4 32 -2 -1 -21 -20 -43 -43z m-865 -431 c0 -3 -4 -8 -10 -11 -5 -3 -10 -1 -10 4 0 6 5 11 10 11 6 0 10 -2 10 -4z"/>
 </g>

</svg>